# Blender v2.65 (sub 0) OBJ File: ''
# www.blender.org
mtllib pyramid.mtl
o Cube_Cube.008
v -0.942298 -0.963281 0.857620
v -0.942298 -0.963281 -1.142380
v 1.057702 -0.963281 -1.142380
v 1.057702 -0.963281 0.857620
v 0.057702 1.036719 -0.142380
vn -0.000000 -1.000000 0.000000
vn -0.894427 0.447214 0.000000
vn 0.000000 0.447214 -0.894427
vn 0.894427 0.447214 -0.000000
vn 0.000000 0.447214 0.894427
usemtl None
s off
f 1//1 2//1 3//1
f 1//1 3//1 4//1
f 2//2 1//2 5//2
f 5//3 3//3 2//3
f 5//4 4//4 3//4
f 5//5 1//5 4//5
