# Blender v2.65 (sub 0) OBJ File: ''
# www.blender.org
mtllib ReflectiveConcreteRoom3.mtl
o Cube.003
v 4.074237 -4.074236 -4.074236
v 4.074239 4.074237 -4.074234
v 4.074234 4.074236 4.074239
v 4.074237 -4.074237 4.074236
v 3.439523 -4.074236 -4.074236
v 3.439525 4.074237 -4.074234
v 3.439520 4.074236 4.074239
v 3.439523 -4.074237 4.074236
vn -1.000000 0.000000 -0.000001
vn -1.000000 -0.000000 -0.000000
vn 1.000000 -0.000000 0.000001
vn 1.000000 0.000000 0.000000
vn 0.000000 1.000000 0.000000
vn 0.000000 0.000000 -1.000000
vn 0.000000 -0.000000 1.000000
vn 0.000000 -1.000000 -0.000000
usemtl Material.003
s off
f 1//1 3//1 2//1
f 1//2 4//2 3//2
f 5//3 6//3 7//3
f 5//4 7//4 8//4
f 4//5 1//5 5//5
f 4//5 5//5 8//5
f 3//6 4//6 8//6
f 3//6 8//6 7//6
f 1//7 2//7 6//7
f 1//7 6//7 5//7
f 2//8 3//8 7//8
f 2//8 7//8 6//8
