# Blender v2.65 (sub 0) OBJ File: ''
# www.blender.org
mtllib ReflectiveConcreteRoom1.mtl
o Cube.001
v 4.074237 -4.074237 4.074236
v 4.074234 4.074236 4.074239
v -4.074238 4.074236 4.074235
v -4.074237 -4.074237 4.074235
v 4.074237 -4.074237 3.439523
v 4.074234 4.074236 3.439526
v -4.074238 4.074236 3.439522
v -4.074237 -4.074237 3.439522
vn 0.000000 0.000000 -1.000000
vn -0.000000 -0.000000 1.000000
vn 0.000000 1.000000 -0.000000
vn 1.000000 0.000000 0.000000
vn -1.000000 -0.000000 0.000000
vn 0.000000 -1.000000 0.000000
usemtl Material.001
s off
f 1//1 3//1 2//1
f 1//1 4//1 3//1
f 5//2 6//2 7//2
f 5//2 7//2 8//2
f 4//3 1//3 5//3
f 4//3 5//3 8//3
f 3//4 4//4 8//4
f 3//4 8//4 7//4
f 1//5 2//5 6//5
f 1//5 6//5 5//5
f 2//6 3//6 7//6
f 2//6 7//6 6//6
